PathFileType	4	(X/Y/Z)	Patient4_TMGait_0pt7_02_right_17.trc.trc
DataRate	CameraRate	NumFrames	NumMarkers	Units	OrigDataRate	OrigDataStartFrame	OrigNumFrames
88.607594936709	88.607594936709	4	33	mm	88.607594936709	18	       141
Frame#	Time	Sacral			L.Shoulder			Chest			R.Shoulder			Neck			R.ASIS			L.ASIS			R.Thigh.Superior			R.Thigh.Lateral			R.Thigh.Inferior			R.Patella			L.Thigh.Superior			L.Thigh.Lateral			L.Thigh.Inferior			L.Patella			L.Shank.Superior			L.Shank.Lateral			L.Shank.Inferior			R.Shank.Superior			R.Shank.Lateral			R.Shank.Inferior			R.Heel			R.Midfoot.Superior			R.Midfoot.Lateral			R.Toe			L.Heel			L.Midfoot.Lateral			L.Midfoot.Superior			L.Toe			L.Elbow			L.Wrist			R.Elbow			R.Wrist			
		X1	Y1	Z1	X2	Y2	Z2	X3	Y3	Z3	X4	Y4	Z4	X5	Y5	Z5	X6	Y6	Z6	X7	Y7	Z7	X8	Y8	Z8	X9	Y9	Z9	X10	Y10	Z10	X11	Y11	Z11	X12	Y12	Z12	X13	Y13	Z13	X14	Y14	Z14	X15	Y15	Z15	X16	Y16	Z16	X17	Y17	Z17	X18	Y18	Z18	X19	Y19	Z19	X20	Y20	Z20	X21	Y21	Z21	X22	Y22	Z22	X23	Y23	Z23	X24	Y24	Z24	X25	Y25	Z25	X26	Y26	Z26	X27	Y27	Z27	X28	Y28	Z28	X29	Y29	Z29	X30	Y30	Z30	X31	Y31	Z31	X32	Y32	Z32	X33	Y33	Z33	

18	18.841857142857	793.957270715500	1012.906343290057	444.431957641319	1004.833759549768	1430.414855644155	268.749833993989	1094.368464832413	1353.701477173345	434.984312635487	1007.376676641874	1434.140617118346	603.846190867856	997.723644744088	1491.197870419928	423.227572408782	1012.337171244239	939.685936817465	571.906399058759	1010.049414083211	957.113846012479	295.617268283203	1086.098963692877	772.670178255374	544.113387618491	1047.367836303698	651.544873256248	620.435896746360	1135.384788717215	614.091279557922	539.682207967013	1171.232661356014	529.373127614837	561.149007182535	1014.009067529095	731.525236604177	324.811757451503	898.724212631348	637.229994739176	262.944974024547	960.082908250643	543.915809873232	326.600792450984	945.596406253954	479.192001108247	336.708981057092	915.558975224268	413.085524155387	329.106439137329	816.799435792503	305.416960100580	278.374310426042	858.883964200998	191.642440506026	352.622912915053	1149.088811561468	440.582268145600	571.242411961399	1089.373304259238	329.500862374328	633.065159988254	1155.097761574896	240.373893534115	583.164056411427	1055.484016735186	56.748490975310	551.320106991204	1218.915935735568	126.213221264906	597.442310183821	1137.376364388536	51.382577580417	626.573547394159	1341.007694181878	85.520261817255	627.303846751888	723.621351630542	39.787833166981	400.414377769420	796.121452012540	35.213097783220	318.603009391753	879.968755314853	95.529619877303	343.984230059969	1008.045856688394	42.097410936575	314.608373239065	1100.852161489441	1128.539238102141	103.572546940644	1343.282115014403	1108.126902249942	179.427518719528	837.400001403747	1146.201730926323	732.400059676010	774.537457815498	893.659533878556	759.143000964358	
19	18.853142857143	795.695892862288	1011.229648247609	446.277179419771	1005.101129671675	1428.977334704725	270.266632207982	1094.909334589606	1352.854405492575	436.628493863932	1007.622843195590	1433.514005056097	605.253513595031	997.772965169137	1489.943054412843	424.550192755831	1013.986153958411	938.027103663852	573.803507380807	1011.689679108966	955.966270708000	297.549010564358	1085.179011247030	768.372552416341	546.458703220646	1043.856860813784	647.516106548166	622.039771513835	1131.556474073412	609.446419507495	541.142888523387	1166.429537737912	526.461172222176	561.681231514816	1013.469675092898	729.868936577276	326.161289728168	896.957241865476	636.800383466822	264.107608027949	957.186162201162	542.800359173272	327.569972033506	942.060000588899	477.985193650537	337.534975293241	911.217835500147	412.169494885307	329.832568761794	811.178314176510	305.687897867115	278.931736420964	851.994979426552	191.230299342142	352.827872822288	1147.324959543352	437.865570099713	571.861858684577	1091.015874580837	324.320973721561	632.630208166135	1160.640272384974	237.761957754117	582.786910311009	1067.831092060580	50.904014573395	549.466236839867	1228.979040614035	124.917716928671	596.260876576027	1149.590190346175	47.847462355162	624.987081338964	1352.376558979407	87.978369914744	626.793745439749	715.661183866763	39.891472164787	400.303099912564	788.207283703411	35.205911324310	318.604977797490	872.084320091587	95.479228891577	343.994724481794	1000.143367641850	41.864037079686	314.593462746943	1101.337194506661	1127.708455037389	104.588991775828	1342.886313943652	1114.485442161810	183.278084262524	833.210801539656	1149.430753771962	733.818092692503	768.343150325470	897.119694299873	759.903024862414	
20	18.864428571429	797.608615768168	1009.443759524834	448.385462187569	1005.250782687792	1427.449975674938	271.892879566198	1095.446356982462	1352.036642342202	438.381456058533	1007.837964998863	1432.847988769409	606.799244892164	997.717199040686	1488.622866271661	425.997116744372	1015.851713150701	936.276197962846	575.857320943019	1013.512634082259	954.719927653302	299.763589222140	1084.813154121658	764.308486913266	548.927303450094	1040.891941322992	643.570109806054	623.481849187355	1128.445089887623	605.146152612331	542.584185382941	1162.080424950661	523.442990385108	562.077628263630	1013.142833170419	728.172401436319	327.646726617333	895.441751512175	636.331647488096	265.425871920769	954.594085035327	541.649545086332	328.675866504457	938.859317631705	476.664633883847	338.485764275810	907.134274379567	411.162435452526	330.659752181260	805.713477685003	305.995195337635	279.602621129958	845.179322130980	190.798629169385	353.076808779580	1145.477859291082	434.927939570702	572.268620946281	1091.609654180748	319.521809518615	631.809168189805	1164.283851339605	235.113235762190	582.077026964579	1076.589976239254	46.492079018068	547.325700907089	1236.053356372463	123.286001220716	594.652879868788	1158.092970477611	44.998697277551	623.104777907760	1360.212056006580	88.808396342013	625.814659438573	707.688852272619	40.015406449780	400.173458400297	780.306152810142	35.189068344345	318.606454975693	864.224874532229	95.436911944144	343.996054288839	992.272178472217	41.636193554637	314.556935617955	1101.353921301484	1126.532310537607	105.808305872579	1341.908314260816	1119.534611766497	187.055341003024	829.731226331023	1152.055795206260	735.145334125703	763.374108261017	899.829001053120	760.752339797141	
21	18.875714285714	799.639918649896	1007.611071104014	450.743265480406	1005.307061610725	1425.860348444168	273.641142978889	1095.998092425608	1351.258626867395	440.254343850554	1008.039162329752	1432.134678548443	608.506097387352	997.591062935814	1487.262830801014	427.591978008384	1017.899685952603	934.457813241431	578.054717004490	1015.470178559311	953.409811074566	302.230471976375	1085.081178192677	760.604204544603	551.469130145048	1038.575890593917	639.815328755471	624.711492809140	1126.189814542979	601.317805968231	543.996981657723	1158.353861499023	520.403892274842	562.329556210169	1013.065341716446	726.478831015846	329.258852790709	894.239828787162	635.813675061107	266.906169010460	952.420157092674	540.462559880092	329.915253840749	936.127606292915	475.204341387072	339.545830857841	903.411646008530	410.047903978057	331.580086814836	800.479383665674	306.353397049335	280.391355366273	838.488798531137	190.354015882124	353.368118170070	1143.690178167692	431.834637564764	572.456322790325	1091.314899565642	315.139138391232	630.718755283531	1166.127505553422	232.366588410414	581.095360631855	1081.703901438404	43.363161836680	545.074806710586	1240.213982812240	121.212368091629	592.735680735389	1162.891345054035	42.722149650915	621.106120125091	1364.642676566963	87.850876480690	624.444635814684	699.707707408566	40.210363135206	400.018066340547	772.420159744511	35.177557021761	318.601902527698	856.415673367307	95.401810380223	343.977824442056	984.435678205485	41.411328952775	314.496815640660	1100.886401031834	1125.017954500204	107.237013752384	1340.421365307536	1123.253312033597	190.751674962986	827.040888069459	1153.954811385566	736.417643319911	759.663492469195	901.697923738383	761.683716650996	
